Coordinates
version=1
nRows=9
nColumns=42
inDegrees=yes

Units are S.I. units (second, meters, Newtons, ...)
If the header above contains a line with 'inDegrees', this indicates whether rotational values are in degrees (yes) or radians (no).

endheader
time	pelvis_tilt	pelvis_list	pelvis_rotation	pelvis_tx	pelvis_ty	pelvis_tz	hip_flexion_r	hip_adduction_r	hip_rotation_r	knee_angle_r	knee_adduction_r	knee_angle_r_beta	ankle_angle_r	subtalar_angle_r	mtp_angle_r	hip_flexion_l	hip_adduction_l	hip_rotation_l	knee_angle_l	knee_adduction_l	knee_angle_l_beta	ankle_angle_l	subtalar_angle_l	mtp_angle_l	lumbar_extension	lumbar_bending	lumbar_rotation	arm_flex_r	arm_add_r	arm_rot_r	elbow_flex_r	pro_sup_r	wrist_flex_r	wrist_dev_r	arm_flex_l	arm_add_l	arm_rot_l	elbow_flex_l	pro_sup_l	wrist_flex_l	wrist_dev_l
      0.89000000	     20.62314118	      3.77488811	      5.88732304	     -0.35493045	      0.89764354	     -0.14879223	      4.83581324	     -4.35307887	    -28.10332272	     37.19136886	     -5.61269841	      0.64911184	     16.67681596	      5.50066226	     -7.57149231	    -26.66024199	      1.58895616	      0.66427864	     48.78043189	      2.49184445	      0.85137915	     -0.66293080	    -16.07885294	     -7.57149231	    -41.32214981	      0.49131625	     -3.69709696	     -0.64255562	     -5.51317300	    -32.90791720	     31.10683075	     90.00000001	      0.00000000	      0.00000000	      9.34707335	     -6.38005078	    -30.65086722	     36.53028042	     90.00000001	      0.00000000	      0.00000000
      0.90000000	     20.74833389	      3.56494590	      5.68184622	     -0.34613397	      0.89859262	     -0.14752097	      4.04368302	     -3.91880736	    -28.20359126	     37.04965998	     -5.71753758	      0.64663855	     17.31060137	      5.73767013	     -7.56988229	    -25.58496237	      1.37984397	      0.44920710	     51.15058544	      2.50138332	      0.89274613	     -0.78380381	    -16.75447315	     -7.56988229	    -41.43661344	      0.61327431	     -3.58585519	     -0.16925328	     -5.60503247	    -32.60385225	     31.35357880	     90.00000001	      0.00000000	      0.00000000	      8.95323750	     -6.28918211	    -30.76642639	     36.34500438	     90.00000001	      0.00000000	      0.00000000
      0.91000000	     20.89152451	      3.42639542	      5.53500088	     -0.33752896	      0.89960317	     -0.14636072	      3.17818002	     -3.62626698	    -28.29469627	     36.88734826	     -5.65524767	      0.64380568	     17.81856069	      5.95287462	     -7.56884247	    -24.46196465	      1.24535638	      0.22542514	     53.45782911	      2.38733650	      0.93301513	     -0.59380598	    -17.33349732	     -7.56884247	    -41.59248434	      0.69420002	     -3.54313386	      0.34507811	     -5.66750373	    -32.34268478	     31.60116882	     90.00000001	      0.00000000	      0.00000000	      8.59504220	     -6.21489673	    -30.83094075	     36.16607011	     90.00000001	      0.00000000	      0.00000000
      0.92000000	     21.02152881	      3.33124241	      5.37416826	     -0.32917501	      0.90060554	     -0.14519945	      2.34255450	     -3.37323321	    -28.35284529	     36.71578186	     -5.62891535	      0.64081128	     18.29511324	      6.17066404	     -7.56795174	    -23.24753552	      1.18820575	     -0.10007223	     55.69444499	      2.15196544	      0.97205144	     -0.16279602	    -17.84963238	     -7.56795174	    -41.76647482	      0.71075622	     -3.48587681	      0.88530705	     -5.71118311	    -32.06712159	     31.83912945	     90.00000001	      0.00000000	      0.00000000	      8.35028333	     -6.15520072	    -30.87007147	     36.01484528	     90.00000001	      0.00000000	      0.00000000
      0.93000000	     21.04527407	      3.21449653	      5.25831603	     -0.32095981	      0.90147720	     -0.14403380	      1.63242661	     -3.07828715	    -28.40604897	     36.48746243	     -5.62971258	      0.63682636	     18.84833026	      6.43877606	     -7.56698867	    -21.82036745	      1.06234811	     -0.62808199	     57.90658758	      1.74008422	      1.01066061	      0.58323051	    -18.30800462	     -7.56698867	    -41.83663758	      0.75137162	     -3.45030225	      1.45778552	     -5.75701076	    -31.71996206	     32.07568752	     90.00000001	      0.00000000	      0.00000000	      8.08757002	     -6.09276778	    -30.91333414	     35.81915207	     90.00000001	      0.00000000	      0.00000000
      0.94000000	     20.99181071	      3.09295461	      5.11329464	     -0.31296220	      0.90223619	     -0.14290147	      1.06325962	     -2.75252323	    -28.44399221	     36.25997153	     -5.75957528	      0.63285589	     19.51382912	      6.84752827	     -7.56566394	    -20.22536276	      0.93505758	     -1.47621792	     60.02001929	      1.10720927	      1.04754695	      1.76550746	    -18.50089252	     -7.56566394	    -41.84913128	      0.77366238	     -3.37871189	      2.05962361	     -5.85262288	    -31.17362144	     32.27323073	     90.00000001	      0.00000000	      0.00000000	      7.87058695	     -6.01970610	    -30.98126423	     35.53431910	     90.00000001	      0.00000000	      0.00000000
      0.95000000	     21.02212302	      3.06479816	      4.99127532	     -0.30505954	      0.90311795	     -0.14182470	      0.34410985	     -2.57050889	    -28.47058256	     36.02460233	     -5.74719304	      0.62874792	     20.03493596	      7.23135535	     -7.56430505	    -18.72323877	      0.92924739	     -2.26825693	     61.89558887	      0.38560905	      1.08028182	      3.00731808	    -18.61955972	     -7.56430505	    -41.94145928	      0.72941718	     -3.33534708	      2.63368225	     -5.92059517	    -30.56211488	     32.45485373	     90.00000001	      0.00000000	      0.00000000	      7.75363261	     -5.94997593	    -31.04057868	     35.26738040	     90.00000001	      0.00000000	      0.00000000
      0.96000000	     21.16025869	      3.15174500	      4.93803587	     -0.29733764	      0.90421669	     -0.14084725	     -0.55938631	     -2.56291987	    -28.46390507	     35.76301871	     -5.55139719	      0.62418243	     20.29032367	      7.37594870	     -7.56353752	    -17.34135673	      1.07986793	     -2.66489727	     63.51476193	     -0.21963538	      1.10854172	      3.88536453	    -18.82903102	     -7.56353752	    -42.18901714	      0.58930023	     -3.29374605	      3.22034222	     -5.91972286	    -30.21624986	     32.69224419	     90.00000001	      0.00000000	      0.00000000	      7.75605580	     -5.91232729	    -31.02532709	     35.19209087	     90.00000001	      0.00000000	      0.00000000
      0.97000000	     21.13508972	      3.12406809	      4.88469539	     -0.28974932	      0.90507646	     -0.13986211	     -1.24948270	     -2.36628550	    -28.39991494	     35.41931359	     -5.44657546	      0.61818364	     20.72504483	      7.56106457	     -7.56263630	    -15.67647971	      1.09002854	     -3.33902393	     65.06714309	     -0.98625658	      1.13563588	      5.13751694	    -18.90045125	     -7.56263630	    -42.26041719	      0.55134579	     -3.29628740	      3.86102360	     -5.92712792	    -29.74934326	     32.92409915	     90.00000001	      0.00000000	      0.00000000	      7.64697769	     -5.87071094	    -31.02108262	     35.02252485	     90.00000001	      0.00000000	      0.00000000
